<svg xmlns="http://www.w3.org/2000/svg" width="410" height="404" viewBox="0 0 410 404" fill="none">
<path d="M399.641 59.5246L215.643 388.545C211.844 395.338 202.084 395.378 198.228 388.618L10.5817 59.5563C6.38087 52.1896 12.6802 43.2665 21.0281 44.7586L205.223 77.6824C206.398 77.8924 207.601 77.8904 208.776 77.6763L389.119 44.8058C397.439 43.2894 403.768 52.1434 399.64 59.5246H399.641Z" fill="url(#paint0_linear)"/>
<path d="M292.965 1.5744L156.801 28.2552C155.563 28.5047 154.437 29.1763 153.596 30.1669C152.755 31.1575 152.25 32.4034 152.153 33.7169L144.447 149.524C144.373 150.653 144.586 151.786 145.063 152.814C145.54 153.842 146.267 154.735 147.178 155.41C148.089 156.085 149.154 156.521 150.271 156.681C151.387 156.84 152.525 156.718 153.576 156.325L188.42 143.817C189.42 143.429 190.321 142.82 191.05 142.037C191.779 141.255 192.317 140.317 192.625 139.289L211.627 75.2456L273.5 63.6033L252.976 133.64C252.603 134.933 252.577 136.297 252.901 137.606C253.226 138.915 253.891 140.128 254.844 141.132C255.798 142.137 257.011 142.902 258.366 143.364C259.72 143.827 261.171 143.973 262.593 143.79L302.39 138.57C303.962 138.369 305.456 137.763 306.728 136.811C308 135.859 309.007 134.596 309.658 133.142C310.309 131.687 310.582 130.086 310.451 128.49C310.32 126.894 309.788 125.351 308.903 124.01L266.229 58.3406L303.004 51.2182C305.137 50.7813 307.087 49.6949 308.608 48.0876C310.129 46.4804 311.151 44.4227 311.542 42.1951L317.961 7.5292C318.049 7.04874 318.03 6.55517 317.905 6.0819C317.779 5.60863 317.55 5.16769 317.233 4.79124C316.916 4.41479 316.518 4.11222 316.067 3.905C315.616 3.69778 315.123 3.59042 314.625 3.59033C314.427 3.5896 314.229 3.60706 314.034 3.6424L292.965 1.5744Z" fill="#161616"/>
<defs>
<linearGradient id="paint0_linear" x1="6.00017" y1="32.9999" x2="235" y2="344" gradientUnits="userSpaceOnUse">
<stop stop-color="#41D1FF"/>
<stop offset="1" stop-color="#BD34FE"/>
</linearGradient>
</defs>
</svg>
